<?xml version="1.0" encoding="utf-8"?>
<!DOCTYPE svg PUBLIC "-//W3C//DTD SVG 1.1//EN" "http://www.w3.org/Graphics/SVG/1.1/DTD/svg11.dtd">
<svg version="1.1" xmlns="http://www.w3.org/2000/svg" xmlns:xlink="http://www.w3.org/1999/xlink" x="0px" y="0px" width="36pt"
	 height="36pt" viewBox="0 -10 440 440" enable-background="new 0 0 440 440" xml:space="preserve">
<g>
	<defs>
		<filter id="OpacityMask" filterUnits="userSpaceOnUse" x="30" y="30" width="380" height="380">
			<feColorMatrix  type="matrix" values="1 0 0 0 0  0 1 0 0 0  0 0 1 0 0  0 0 0 1 0"/>
		</filter>
	</defs>
	<mask maskUnits="userSpaceOnUse" x="30" y="30" width="380" height="380" id="alpha">
		<g filter="url(#OpacityMask)">
			<path fill="#FFFFFF" d="M220,409c-104.215,0-189-84.785-189-189S115.785,31,220,31c44.901,0,88.421,16.021,122.542,45.111
				c12.562,10.706,23.673,22.999,33.025,36.537C397.439,144.285,409,181.406,409,220c0,30.645-7.506,61.083-21.705,88.024
				c-8.013,15.193-18.06,29.227-29.861,41.708c-17.482,18.523-38.116,33.099-61.328,43.321C272.081,403.635,246.475,409,220,409z"/>
		</g>
	</mask>
	<g mask="url(#alpha)">
		<path id="bg" fill="#0B70B8" d="M410,220c0,31.95-7.89,62.06-21.82,88.49c-8.09,15.34-18.21,29.439-30.02,41.93
			C323.53,387.11,274.44,410,220,410c-104.93,0-190-85.061-190-190c0-104.93,85.07-190,190-190c47.01,0,90.02,17.07,123.19,45.35
			c12.59,10.73,23.77,23.08,33.199,36.73C397.58,142.73,410,179.92,410,220z"/>
		<path fill="#FFFFFF" d="M388.18,308.49c-8.09,15.34-18.21,29.439-30.02,41.93c-5.48-0.91-10.88-2.75-15.53-6.04
			c-36.13-25.5-34.56-103.51-52.38-159.75c-16-50.5-44.04-70.22-75.79-66.72c-22.72,2.5-67.71,25.97-68.21,99.72
			c-0.31,45.5,13.25,98.25,68,97.5c54.37-0.74,75.7-75.94,75.7-77.56l11,57.1c0,0-19.7,59.96-93.45,59.96
			c-83.25,0-108.5-73-108.5-129.5c0-52.59,22.25-144.75,124-144.75c70.75,0,93.25,71.25,93.25,71.25l26.94-76.28
			c12.59,10.73,23.77,23.08,33.199,36.73L335.64,216.2c0,0,6.551,32.24,12.86,54.93C355.73,297.149,365.4,313.24,388.18,308.49z"/>
	</g>
</g>
</svg>
